<svg xmlns="http://www.w3.org/2000/svg" viewBox="0 0 720 380" role="img" aria-label="Cardinality notation: many-to-many, many-to-one, one-to-many, one-to-one">
  <defs>
    <marker id="arrow" viewBox="0 0 10 10" refX="9" refY="5" markerWidth="8" markerHeight="8" orient="auto-start-reverse">
      <path d="M0,0 L10,5 L0,10 z" fill="#5C2E2A"/>
    </marker>
    <style>
      .card-entity { fill:#FAF7F2; stroke:#5C2E2A; stroke-width:2; }
      .card-rel    { fill:#FAF7F2; stroke:#5C2E2A; stroke-width:2; }
      .card-line   { stroke:#5C2E2A; stroke-width:1.5; fill:none; }
      .card-label  { font-family:"Manrope", system-ui, sans-serif; font-size:13px; font-weight:600; fill:#1A1A1A; }
      .card-title  { font-family:"Manrope", system-ui, sans-serif; font-size:13px; fill:#555; letter-spacing:0.04em; text-transform:uppercase; font-weight:600; }
      .card-rel-text { font-family:"Manrope", system-ui, sans-serif; font-size:11px; fill:#1A1A1A; }
    </style>
  </defs>

  <!-- M:N (many-to-many) -->
  <text class="card-title" x="120" y="30" text-anchor="middle">M : N</text>
  <rect class="card-entity" x="40"  y="50" width="70" height="40"/>
  <text class="card-label" x="75" y="75" text-anchor="middle">A</text>
  <polygon class="card-rel" points="160,70 195,52 230,70 195,88"/>
  <text class="card-rel-text" x="195" y="74" text-anchor="middle">R</text>
  <rect class="card-entity" x="280" y="50" width="70" height="40"/>
  <text class="card-label" x="315" y="75" text-anchor="middle">B</text>
  <line class="card-line" x1="110" y1="70" x2="160" y2="70"/>
  <line class="card-line" x1="230" y1="70" x2="280" y2="70"/>

  <!-- N:1 (many-to-one) -->
  <text class="card-title" x="500" y="30" text-anchor="middle">N : 1</text>
  <rect class="card-entity" x="420" y="50" width="70" height="40"/>
  <text class="card-label" x="455" y="75" text-anchor="middle">A</text>
  <polygon class="card-rel" points="540,70 575,52 610,70 575,88"/>
  <text class="card-rel-text" x="575" y="74" text-anchor="middle">R</text>
  <rect class="card-entity" x="660" y="50" width="70" height="40"/>
  <text class="card-label" x="695" y="75" text-anchor="middle">B</text>
  <line class="card-line" x1="490" y1="70" x2="540" y2="70"/>
  <line class="card-line" x1="610" y1="70" x2="660" y2="70" marker-end="url(#arrow)"/>

  <!-- 1:N (one-to-many) -->
  <text class="card-title" x="120" y="190" text-anchor="middle">1 : N</text>
  <rect class="card-entity" x="40"  y="210" width="70" height="40"/>
  <text class="card-label" x="75" y="235" text-anchor="middle">A</text>
  <polygon class="card-rel" points="160,230 195,212 230,230 195,248"/>
  <text class="card-rel-text" x="195" y="234" text-anchor="middle">R</text>
  <rect class="card-entity" x="280" y="210" width="70" height="40"/>
  <text class="card-label" x="315" y="235" text-anchor="middle">B</text>
  <line class="card-line" x1="160" y1="230" x2="110" y2="230" marker-end="url(#arrow)"/>
  <line class="card-line" x1="230" y1="230" x2="280" y2="230"/>

  <!-- 1:1 (one-to-one) -->
  <text class="card-title" x="500" y="190" text-anchor="middle">1 : 1</text>
  <rect class="card-entity" x="420" y="210" width="70" height="40"/>
  <text class="card-label" x="455" y="235" text-anchor="middle">A</text>
  <polygon class="card-rel" points="540,230 575,212 610,230 575,248"/>
  <text class="card-rel-text" x="575" y="234" text-anchor="middle">R</text>
  <rect class="card-entity" x="660" y="210" width="70" height="40"/>
  <text class="card-label" x="695" y="235" text-anchor="middle">B</text>
  <line class="card-line" x1="540" y1="230" x2="490" y2="230" marker-end="url(#arrow)"/>
  <line class="card-line" x1="610" y1="230" x2="660" y2="230" marker-end="url(#arrow)"/>

  <!-- Caption / key -->
  <text class="card-rel-text" x="360" y="320" text-anchor="middle" fill="#555">
    The arrow tip points at the entity with "1" in the ratio. No arrow = "many".
  </text>
  <text class="card-rel-text" x="360" y="340" text-anchor="middle" fill="#555">
    R is the relationship between entity sets A and B.
  </text>
</svg>
